<svg xmlns="http://www.w3.org/2000/svg" viewBox="0 0 1920 1080">
      <g transform="
          rotate(0 960 540)
          translate(-0 -0)
          scale(1)
        ">
        <rect width="1920" height="1080" fill="rgb(184, 171, 255)"></rect>
        <g transform="translate(0, 0)">
          <path fill="rgb(152, 137, 233)" fill-opacity="1"
            d="M0,211.766L40,210.045C80,208.324,160,204.882,240,204.349C320,203.815,400,206.19,480,206.457C560,206.724,640,204.883,720,181.91C800,158.936,880,114.83,960,111.105C1040,107.38,1120,144.036,1200,132.802C1280,121.567,1360,62.441,1440,59.088C1520,55.735,1600,108.155,1680,121.211C1760,134.268,1840,107.962,1880,94.809L1920,81.656L1920,1080L1880,1080C1840,1080,1760,1080,1680,1080C1600,1080,1520,1080,1440,1080C1360,1080,1280,1080,1200,1080C1120,1080,1040,1080,960,1080C880,1080,800,1080,720,1080C640,1080,560,1080,480,1080C400,1080,320,1080,240,1080C160,1080,80,1080,40,1080L0,1080Z">
          </path>
        </g>
        <g transform="translate(0, 216)">
          <path fill="rgb(121, 103, 210)" fill-opacity="1"
            d="M0,14.482L40,37.236C80,59.99,160,105.497,240,113.703C320,121.909,400,92.812,480,78.248C560,63.685,640,63.654,720,84.765C800,105.875,880,148.126,960,170.818C1040,193.51,1120,196.643,1200,170.805C1280,144.967,1360,90.158,1440,67.574C1520,44.99,1600,54.631,1680,75.764C1760,96.896,1840,129.519,1880,145.831L1920,162.143L1920,864L1880,864C1840,864,1760,864,1680,864C1600,864,1520,864,1440,864C1360,864,1280,864,1200,864C1120,864,1040,864,960,864C880,864,800,864,720,864C640,864,560,864,480,864C400,864,320,864,240,864C160,864,80,864,40,864L0,864Z">
          </path>
        </g>
        <g transform="translate(0, 432)">
          <path fill="rgb(89, 68, 188)" fill-opacity="1"
            d="M0,202.744L40,187.075C80,171.407,160,140.071,240,108.188C320,76.304,400,43.874,480,26.019C560,8.164,640,4.885,720,24.647C800,44.41,880,87.215,960,100.669C1040,114.124,1120,98.228,1200,81.706C1280,65.185,1360,48.037,1440,43.353C1520,38.669,1600,46.447,1680,51.965C1760,57.483,1840,60.739,1880,62.367L1920,63.996L1920,648L1880,648C1840,648,1760,648,1680,648C1600,648,1520,648,1440,648C1360,648,1280,648,1200,648C1120,648,1040,648,960,648C880,648,800,648,720,648C640,648,560,648,480,648C400,648,320,648,240,648C160,648,80,648,40,648L0,648Z">
          </path>
        </g>
        <g transform="translate(0, 648)">
          <path fill="rgb(58, 34, 165)" fill-opacity="1"
            d="M0,168.793L40,175.116C80,181.439,160,194.085,240,201.671C320,209.256,400,211.781,480,197.174C560,182.567,640,150.829,720,125.577C800,100.325,880,81.56,960,65.182C1040,48.804,1120,34.813,1200,55.484C1280,76.155,1360,131.487,1440,163.3C1520,195.113,1600,203.408,1680,207.849C1760,212.29,1840,212.879,1880,213.173L1920,213.467L1920,432L1880,432C1840,432,1760,432,1680,432C1600,432,1520,432,1440,432C1360,432,1280,432,1200,432C1120,432,1040,432,960,432C880,432,800,432,720,432C640,432,560,432,480,432C400,432,320,432,240,432C160,432,80,432,40,432L0,432Z">
          </path>
        </g>
        <g transform="translate(0, 864)">
          <path fill="rgb(26, 0, 143)" fill-opacity="1"
            d="M0,137.843L40,134.706C80,131.569,160,125.295,240,112.475C320,99.655,400,80.29,480,95.586C560,110.882,640,160.839,720,181.672C800,202.506,880,194.215,960,191.858C1040,189.501,1120,193.078,1200,188.928C1280,184.778,1360,172.902,1440,143.273C1520,113.645,1600,66.265,1680,71.939C1760,77.613,1840,136.34,1880,165.704L1920,195.068L1920,216L1880,216C1840,216,1760,216,1680,216C1600,216,1520,216,1440,216C1360,216,1280,216,1200,216C1120,216,1040,216,960,216C880,216,800,216,720,216C640,216,560,216,480,216C400,216,320,216,240,216C160,216,80,216,40,216L0,216Z">
          </path>
        </g>
      </g>
    </svg>
