<svg xmlns="http://www.w3.org/2000/svg" version="1.1" xmlns:xlink="http://www.w3.org/1999/xlink" xmlns:svgjs="http://svgjs.dev/svgjs" viewBox="0 0 1422 800"><g stroke-width="2" stroke="hsl(205, 69%, 50%)" fill="none" stroke-linecap="round"><line x1="78" y1="0" x2="0" y2="78" opacity="0.11"></line><line x1="156" y1="0" x2="78" y2="78" opacity="0.67"></line><line x1="156" y1="0" x2="234" y2="78" opacity="0.60"></line><line x1="234" y1="0" x2="312" y2="78" opacity="0.19"></line><line x1="312" y1="0" x2="390" y2="78" opacity="0.91"></line><line x1="390" y1="0" x2="468" y2="78" opacity="0.23"></line><line x1="468" y1="0" x2="546" y2="78" opacity="0.36"></line><line x1="624" y1="0" x2="546" y2="78" opacity="0.77"></line><line x1="702" y1="0" x2="624" y2="78" opacity="0.34"></line><line x1="780" y1="0" x2="702" y2="78" opacity="0.11"></line><line x1="780" y1="0" x2="858" y2="78" opacity="0.62"></line><line x1="936" y1="0" x2="858" y2="78" opacity="0.57"></line><line x1="1014" y1="0" x2="936" y2="78" opacity="0.88"></line><line x1="1092" y1="0" x2="1014" y2="78" opacity="0.41"></line><line x1="1170" y1="0" x2="1092" y2="78" opacity="0.59"></line><line x1="1248" y1="0" x2="1170" y2="78" opacity="0.21"></line><line x1="1326" y1="0" x2="1248" y2="78" opacity="0.30"></line><line x1="1326" y1="0" x2="1404" y2="78" opacity="0.53"></line><line x1="1482" y1="0" x2="1404" y2="78" opacity="0.29"></line><line x1="78" y1="78" x2="0" y2="156" opacity="0.91"></line><line x1="156" y1="78" x2="78" y2="156" opacity="0.20"></line><line x1="234" y1="78" x2="156" y2="156" opacity="0.39"></line><line x1="312" y1="78" x2="234" y2="156" opacity="0.36"></line><line x1="312" y1="78" x2="390" y2="156" opacity="0.78"></line><line x1="468" y1="78" x2="390" y2="156" opacity="0.25"></line><line x1="468" y1="78" x2="546" y2="156" opacity="0.66"></line><line x1="624" y1="78" x2="546" y2="156" opacity="0.15"></line><line x1="624" y1="78" x2="702" y2="156" opacity="0.30"></line><line x1="780" y1="78" x2="702" y2="156" opacity="0.72"></line><line x1="858" y1="78" x2="780" y2="156" opacity="0.65"></line><line x1="936" y1="78" x2="858" y2="156" opacity="0.95"></line><line x1="1014" y1="78" x2="936" y2="156" opacity="0.91"></line><line x1="1014" y1="78" x2="1092" y2="156" opacity="0.65"></line><line x1="1170" y1="78" x2="1092" y2="156" opacity="0.50"></line><line x1="1248" y1="78" x2="1170" y2="156" opacity="0.31"></line><line x1="1326" y1="78" x2="1248" y2="156" opacity="0.43"></line><line x1="1404" y1="78" x2="1326" y2="156" opacity="0.66"></line><line x1="1482" y1="78" x2="1404" y2="156" opacity="0.78"></line><line x1="78" y1="156" x2="0" y2="234" opacity="0.63"></line><line x1="156" y1="156" x2="78" y2="234" opacity="0.35"></line><line x1="156" y1="156" x2="234" y2="234" opacity="0.89"></line><line x1="234" y1="156" x2="312" y2="234" opacity="0.15"></line><line x1="390" y1="156" x2="312" y2="234" opacity="0.69"></line><line x1="390" y1="156" x2="468" y2="234" opacity="0.99"></line><line x1="468" y1="156" x2="546" y2="234" opacity="0.25"></line><line x1="546" y1="156" x2="624" y2="234" opacity="0.50"></line><line x1="702" y1="156" x2="624" y2="234" opacity="0.15"></line><line x1="702" y1="156" x2="780" y2="234" opacity="0.45"></line><line x1="780" y1="156" x2="858" y2="234" opacity="0.85"></line><line x1="936" y1="156" x2="858" y2="234" opacity="0.27"></line><line x1="1014" y1="156" x2="936" y2="234" opacity="0.27"></line><line x1="1014" y1="156" x2="1092" y2="234" opacity="0.60"></line><line x1="1170" y1="156" x2="1092" y2="234" opacity="0.13"></line><line x1="1170" y1="156" x2="1248" y2="234" opacity="0.83"></line><line x1="1326" y1="156" x2="1248" y2="234" opacity="0.56"></line><line x1="1404" y1="156" x2="1326" y2="234" opacity="0.60"></line><line x1="1482" y1="156" x2="1404" y2="234" opacity="0.15"></line><line x1="78" y1="234" x2="0" y2="312" opacity="0.13"></line><line x1="78" y1="234" x2="156" y2="312" opacity="1.00"></line><line x1="156" y1="234" x2="234" y2="312" opacity="0.80"></line><line x1="312" y1="234" x2="234" y2="312" opacity="0.73"></line><line x1="390" y1="234" x2="312" y2="312" opacity="0.95"></line><line x1="390" y1="234" x2="468" y2="312" opacity="0.99"></line><line x1="546" y1="234" x2="468" y2="312" opacity="0.72"></line><line x1="624" y1="234" x2="546" y2="312" opacity="0.76"></line><line x1="702" y1="234" x2="624" y2="312" opacity="0.10"></line><line x1="780" y1="234" x2="702" y2="312" opacity="0.91"></line><line x1="780" y1="234" x2="858" y2="312" opacity="0.60"></line><line x1="936" y1="234" x2="858" y2="312" opacity="0.54"></line><line x1="1014" y1="234" x2="936" y2="312" opacity="0.98"></line><line x1="1092" y1="234" x2="1014" y2="312" opacity="0.15"></line><line x1="1170" y1="234" x2="1092" y2="312" opacity="0.93"></line><line x1="1248" y1="234" x2="1170" y2="312" opacity="0.21"></line><line x1="1248" y1="234" x2="1326" y2="312" opacity="0.47"></line><line x1="1404" y1="234" x2="1326" y2="312" opacity="0.88"></line><line x1="1482" y1="234" x2="1404" y2="312" opacity="0.59"></line><line x1="78" y1="312" x2="0" y2="390" opacity="0.77"></line><line x1="78" y1="312" x2="156" y2="390" opacity="0.80"></line><line x1="234" y1="312" x2="156" y2="390" opacity="0.36"></line><line x1="234" y1="312" x2="312" y2="390" opacity="0.60"></line><line x1="390" y1="312" x2="312" y2="390" opacity="0.60"></line><line x1="468" y1="312" x2="390" y2="390" opacity="0.15"></line><line x1="546" y1="312" x2="468" y2="390" opacity="0.70"></line><line x1="546" y1="312" x2="624" y2="390" opacity="0.74"></line><line x1="702" y1="312" x2="624" y2="390" opacity="0.39"></line><line x1="780" y1="312" x2="702" y2="390" opacity="0.49"></line><line x1="780" y1="312" x2="858" y2="390" opacity="0.29"></line><line x1="936" y1="312" x2="858" y2="390" opacity="0.24"></line><line x1="1014" y1="312" x2="936" y2="390" opacity="0.35"></line><line x1="1014" y1="312" x2="1092" y2="390" opacity="0.98"></line><line x1="1170" y1="312" x2="1092" y2="390" opacity="0.74"></line><line x1="1170" y1="312" x2="1248" y2="390" opacity="0.13"></line><line x1="1326" y1="312" x2="1248" y2="390" opacity="0.36"></line><line x1="1404" y1="312" x2="1326" y2="390" opacity="0.68"></line><line x1="1482" y1="312" x2="1404" y2="390" opacity="0.69"></line><line x1="78" y1="390" x2="0" y2="468" opacity="0.94"></line><line x1="156" y1="390" x2="78" y2="468" opacity="0.81"></line><line x1="234" y1="390" x2="156" y2="468" opacity="0.89"></line><line x1="312" y1="390" x2="234" y2="468" opacity="0.29"></line><line x1="390" y1="390" x2="312" y2="468" opacity="0.46"></line><line x1="468" y1="390" x2="390" y2="468" opacity="0.41"></line><line x1="546" y1="390" x2="468" y2="468" opacity="0.20"></line><line x1="624" y1="390" x2="546" y2="468" opacity="0.83"></line><line x1="702" y1="390" x2="624" y2="468" opacity="0.35"></line><line x1="702" y1="390" x2="780" y2="468" opacity="0.23"></line><line x1="780" y1="390" x2="858" y2="468" opacity="0.36"></line><line x1="936" y1="390" x2="858" y2="468" opacity="0.69"></line><line x1="1014" y1="390" x2="936" y2="468" opacity="0.74"></line><line x1="1092" y1="390" x2="1014" y2="468" opacity="0.08"></line><line x1="1092" y1="390" x2="1170" y2="468" opacity="0.53"></line><line x1="1248" y1="390" x2="1170" y2="468" opacity="0.53"></line><line x1="1326" y1="390" x2="1248" y2="468" opacity="0.17"></line><line x1="1404" y1="390" x2="1326" y2="468" opacity="0.30"></line><line x1="1482" y1="390" x2="1404" y2="468" opacity="0.83"></line><line x1="78" y1="468" x2="0" y2="546" opacity="0.94"></line><line x1="78" y1="468" x2="156" y2="546" opacity="0.31"></line><line x1="234" y1="468" x2="156" y2="546" opacity="0.32"></line><line x1="234" y1="468" x2="312" y2="546" opacity="0.42"></line><line x1="390" y1="468" x2="312" y2="546" opacity="0.65"></line><line x1="468" y1="468" x2="390" y2="546" opacity="0.13"></line><line x1="468" y1="468" x2="546" y2="546" opacity="0.87"></line><line x1="624" y1="468" x2="546" y2="546" opacity="0.48"></line><line x1="702" y1="468" x2="624" y2="546" opacity="0.16"></line><line x1="702" y1="468" x2="780" y2="546" opacity="0.29"></line><line x1="858" y1="468" x2="780" y2="546" opacity="0.59"></line><line x1="936" y1="468" x2="858" y2="546" opacity="0.22"></line><line x1="1014" y1="468" x2="936" y2="546" opacity="0.91"></line><line x1="1092" y1="468" x2="1014" y2="546" opacity="0.09"></line><line x1="1170" y1="468" x2="1092" y2="546" opacity="0.93"></line><line x1="1248" y1="468" x2="1170" y2="546" opacity="0.45"></line><line x1="1248" y1="468" x2="1326" y2="546" opacity="0.27"></line><line x1="1326" y1="468" x2="1404" y2="546" opacity="0.60"></line><line x1="1404" y1="468" x2="1482" y2="546" opacity="0.68"></line><line x1="78" y1="546" x2="0" y2="624" opacity="0.29"></line><line x1="78" y1="546" x2="156" y2="624" opacity="0.08"></line><line x1="234" y1="546" x2="156" y2="624" opacity="0.21"></line><line x1="234" y1="546" x2="312" y2="624" opacity="0.16"></line><line x1="312" y1="546" x2="390" y2="624" opacity="0.91"></line><line x1="468" y1="546" x2="390" y2="624" opacity="0.69"></line><line x1="546" y1="546" x2="468" y2="624" opacity="0.23"></line><line x1="546" y1="546" x2="624" y2="624" opacity="0.19"></line><line x1="702" y1="546" x2="624" y2="624" opacity="0.46"></line><line x1="702" y1="546" x2="780" y2="624" opacity="0.95"></line><line x1="780" y1="546" x2="858" y2="624" opacity="0.64"></line><line x1="858" y1="546" x2="936" y2="624" opacity="0.70"></line><line x1="1014" y1="546" x2="936" y2="624" opacity="0.37"></line><line x1="1092" y1="546" x2="1014" y2="624" opacity="0.55"></line><line x1="1092" y1="546" x2="1170" y2="624" opacity="0.84"></line><line x1="1170" y1="546" x2="1248" y2="624" opacity="0.14"></line><line x1="1326" y1="546" x2="1248" y2="624" opacity="0.66"></line><line x1="1404" y1="546" x2="1326" y2="624" opacity="0.08"></line><line x1="1404" y1="546" x2="1482" y2="624" opacity="0.89"></line><line x1="78" y1="624" x2="0" y2="702" opacity="0.45"></line><line x1="156" y1="624" x2="78" y2="702" opacity="0.19"></line><line x1="234" y1="624" x2="156" y2="702" opacity="0.81"></line><line x1="312" y1="624" x2="234" y2="702" opacity="0.67"></line><line x1="312" y1="624" x2="390" y2="702" opacity="0.65"></line><line x1="390" y1="624" x2="468" y2="702" opacity="0.16"></line><line x1="546" y1="624" x2="468" y2="702" opacity="0.61"></line><line x1="624" y1="624" x2="546" y2="702" opacity="0.63"></line><line x1="624" y1="624" x2="702" y2="702" opacity="0.21"></line><line x1="780" y1="624" x2="702" y2="702" opacity="0.14"></line><line x1="858" y1="624" x2="780" y2="702" opacity="0.97"></line><line x1="936" y1="624" x2="858" y2="702" opacity="0.95"></line><line x1="1014" y1="624" x2="936" y2="702" opacity="0.79"></line><line x1="1092" y1="624" x2="1014" y2="702" opacity="0.78"></line><line x1="1170" y1="624" x2="1092" y2="702" opacity="0.46"></line><line x1="1248" y1="624" x2="1170" y2="702" opacity="0.33"></line><line x1="1248" y1="624" x2="1326" y2="702" opacity="0.26"></line><line x1="1404" y1="624" x2="1326" y2="702" opacity="0.50"></line><line x1="1482" y1="624" x2="1404" y2="702" opacity="0.65"></line><line x1="78" y1="702" x2="0" y2="780" opacity="0.99"></line><line x1="78" y1="702" x2="156" y2="780" opacity="0.72"></line><line x1="156" y1="702" x2="234" y2="780" opacity="0.85"></line><line x1="312" y1="702" x2="234" y2="780" opacity="0.75"></line><line x1="390" y1="702" x2="312" y2="780" opacity="0.27"></line><line x1="468" y1="702" x2="390" y2="780" opacity="0.43"></line><line x1="468" y1="702" x2="546" y2="780" opacity="0.88"></line><line x1="624" y1="702" x2="546" y2="780" opacity="0.26"></line><line x1="702" y1="702" x2="624" y2="780" opacity="0.65"></line><line x1="780" y1="702" x2="702" y2="780" opacity="0.99"></line><line x1="858" y1="702" x2="780" y2="780" opacity="0.11"></line><line x1="936" y1="702" x2="858" y2="780" opacity="0.93"></line><line x1="936" y1="702" x2="1014" y2="780" opacity="0.67"></line><line x1="1014" y1="702" x2="1092" y2="780" opacity="0.48"></line><line x1="1170" y1="702" x2="1092" y2="780" opacity="1.00"></line><line x1="1248" y1="702" x2="1170" y2="780" opacity="0.44"></line><line x1="1248" y1="702" x2="1326" y2="780" opacity="0.74"></line><line x1="1404" y1="702" x2="1326" y2="780" opacity="0.80"></line><line x1="1482" y1="702" x2="1404" y2="780" opacity="0.84"></line><line x1="0" y1="780" x2="78" y2="858" opacity="0.40"></line><line x1="78" y1="780" x2="156" y2="858" opacity="0.67"></line><line x1="234" y1="780" x2="156" y2="858" opacity="0.88"></line><line x1="234" y1="780" x2="312" y2="858" opacity="0.78"></line><line x1="312" y1="780" x2="390" y2="858" opacity="0.90"></line><line x1="468" y1="780" x2="390" y2="858" opacity="0.28"></line><line x1="468" y1="780" x2="546" y2="858" opacity="0.92"></line><line x1="624" y1="780" x2="546" y2="858" opacity="0.42"></line><line x1="702" y1="780" x2="624" y2="858" opacity="0.78"></line><line x1="780" y1="780" x2="702" y2="858" opacity="0.19"></line><line x1="858" y1="780" x2="780" y2="858" opacity="0.32"></line><line x1="936" y1="780" x2="858" y2="858" opacity="1.00"></line><line x1="1014" y1="780" x2="936" y2="858" opacity="0.39"></line><line x1="1092" y1="780" x2="1014" y2="858" opacity="0.41"></line><line x1="1170" y1="780" x2="1092" y2="858" opacity="0.76"></line><line x1="1248" y1="780" x2="1170" y2="858" opacity="0.79"></line><line x1="1326" y1="780" x2="1248" y2="858" opacity="0.73"></line><line x1="1404" y1="780" x2="1326" y2="858" opacity="0.95"></line><line x1="1482" y1="780" x2="1404" y2="858" opacity="0.17"></line></g></svg>