<svg xmlns="http://www.w3.org/2000/svg" viewBox="0 0 134.16 134.16" role="img" aria-labelledby="wasabi-title">
  <title id="wasabi-title">Wasabi</title>
  <!-- Official Wasabi logomark path from secondary-logo-full-color-rgb.svg; geometry and brand color are unchanged. -->
  <path fill="#00ce3e" d="m98.98,111.91v-17.39l9.58,8.69c-2.84,3.26-6.06,6.18-9.58,8.7h0Zm-40.17,9.59l28.12-26.58v23.5c-6.16,2.39-12.86,3.71-19.85,3.71-2.81,0-5.57-.21-8.27-.62h0ZM12.35,72.86l29.55,26.5,29.71-27.9,15.34-14.5v21.38l-41.58,39.3c-17.89-7.71-30.9-24.65-33.01-44.79h0Zm23.36-50.97l.02,17.47-9.8-8.78c2.9-3.27,6.18-6.19,9.78-8.69h0Zm.06,55.79l-22.83-20.48c1.09-5.97,3.14-11.6,5.99-16.74l16.82,15.09.02,22.13h0ZM75.49,12.68l-12.42,11.74-15.3,14.51-.02-23.38c6.02-2.27,12.54-3.51,19.34-3.51,2.86,0,5.67.22,8.41.64h0Zm45.77,64.09c-1.05,5.86-3.02,11.4-5.77,16.47l-16.52-14.97v-21.7l22.29,20.2h0Zm.52-15.79l-28.91-26.21-29.53,27.92-15.53,14.59-.02-21.76,23.56-22.35,17.57-16.61c17.74,7.7,30.65,24.47,32.86,44.42h0Zm-7.26-41.34C101.84,6.98,85,0,67.08,0S32.32,6.98,19.65,19.65C6.98,32.32,0,49.16,0,67.08s6.98,34.76,19.65,47.43c12.67,12.67,29.52,19.65,47.43,19.65s34.76-6.98,47.43-19.65c12.67-12.67,19.65-29.52,19.65-47.43s-6.98-34.76-19.65-47.43h0Z"/>
</svg>
