<svg width="1000" height="1000" viewBox="0 0 1000 1000" fill="none" xmlns="http://www.w3.org/2000/svg">
<path d="M621.478 371.312C621.478 409.211 607.651 437.078 578.023 452.683C552.344 467.174 513.827 474.977 464.446 477.206V592.018C492.099 594.248 516.79 600.936 535.555 629.917L657.032 864H899L779.498 641.064C742.956 569.725 707.402 554.119 639.255 537.399C739.993 522.908 827.891 467.174 827.891 340.101C827.891 284.367 805.176 219.716 759.745 185.161C715.302 150.606 655.057 135 580.985 135H464.446V270.991H485.186C529.3 270.991 563.537 279.165 587.899 295.514C610.614 311.119 621.478 335.642 621.478 371.312ZM464.446 477.206C459.837 477.206 455.557 477.206 451.607 477.206H307.413V270.991H464.446V135H101V864H313.339V592.018H433.829C443.705 592.018 455.557 592.018 464.446 592.018V477.206Z" fill="#0062FF"/>
</svg>
