<?xml version="1.0" encoding="UTF-8"?>
<svg width="19px" height="22px" viewBox="0 0 19 22" version="1.1" xmlns="http://www.w3.org/2000/svg" xmlns:xlink="http://www.w3.org/1999/xlink">
    <title>面性图标-存储桶</title>
    <g id="页面-2" stroke="none" stroke-width="1" fill="none" fill-rule="evenodd">
        <g id="后台" transform="translate(-363, -115)" fill="#363A44" fill-rule="nonzero">
            <g id="3401716195724_.pic-2" transform="translate(310.1466, 19)">
                <g id="1" transform="translate(15, 63)">
                    <g id="面性图标-存储桶" transform="translate(37.8534, 33)">
                        <path d="M18.9991514,12.0559832 L18.9974541,14.155313 L18.9966055,14.1679495 L18.9966055,16.7710511 L18.9991514,16.7702087 L18.9974541,18.8695386 L18.9966055,18.8813326 L18.9966055,18.9622056 C18.9388986,19.4870381 18.5205235,19.9764886 17.7245076,20.4280299 C16.8758765,20.9115834 15.7217384,21.2957304 14.262093,21.5771013 C12.8024476,21.8593146 11.2155076,22 9.50042432,22 C7.78618965,22 6.198401,21.8593146 4.73875564,21.5771013 C3.27911028,21.294888 2.12497208,20.9115834 1.27634106,20.4288723 C0.482871053,19.9790159 0.0602528027,19.4920927 0.00678904819,18.9697875 L0.00169726205,18.8569022 L0.00169726205,16.7702087 L0.0152753584,16.778633 L0.0152753584,14.2850469 L0.00594041717,14.214283 L0.00169726205,14.1418342 L0.00169726205,12.0559832 C0.981866095,12.7434042 2.32270311,13.2631821 4.02081379,13.6144744 C5.72062173,13.9674517 7.5468757,14.1435191 9.50042432,14.1435191 C11.4548216,14.1435191 13.2810755,13.9666092 14.9791862,13.6153169 C16.6764483,13.2631821 18.0172853,12.7434042 18.9991514,12.0568256 L18.9991514,12.0559832 Z M9.50042432,15.4273789 C8.56305237,15.4273789 7.80316227,16.1817144 7.80316227,17.1122343 C7.80316227,18.0427543 8.56305237,18.7970898 9.50042432,18.7970898 C10.4377963,18.7970898 11.1976864,18.0427543 11.1976864,17.1122343 C11.1976864,16.1817144 10.4377963,15.4273789 9.50042432,15.4273789 Z M9.50042432,0 C11.2155076,0 12.8032963,0.141527858 14.2629416,0.423741145 C15.722587,0.705112005 16.8767252,1.08925905 17.7253562,1.57197013 C18.4721515,1.9965537 18.8879807,2.4523071 18.977087,2.94091518 L18.9915137,3.0538005 L18.9983027,3.0538005 L18.9983027,3.13130385 L19,3.14309784 L19,4.71506797 L18.9983027,4.73865594 L18.9983027,9.47983917 C18.9686007,10.0257323 18.5476797,10.5328738 17.7253562,10.9995788 C16.8750279,11.4831323 15.7217384,11.8664369 14.262093,12.1486502 C12.8024476,12.4300211 11.2155076,12.5715489 9.50042432,12.5715489 C7.78618965,12.5715489 6.198401,12.4300211 4.73875564,12.1486502 C3.27995891,11.8647521 2.12582072,11.4831323 1.27634106,10.9995788 C0.511724508,10.5657285 0.0933494127,10.0981811 0.0178212515,9.5960942 L0.00594041717,9.47983917 L0,9.47983917 L0,3.0538005 L0.0101835723,3.0538005 C0.0526151235,2.52307103 0.471838849,2.02856596 1.27549243,1.5711277 C2.12412345,1.08925905 3.27826165,0.705112005 4.73790701,0.423741145 C6.19924963,0.141527858 7.78703828,0 9.50127295,0 L9.50042432,0 Z M9.50042432,7.95251771 C8.89405098,7.95251771 8.3337389,8.27364932 8.03055222,8.79494542 C7.72736555,9.31624152 7.72736555,9.9585048 8.03055222,10.4798009 C8.3337389,11.001097 8.89405098,11.3222286 9.50042432,11.3222286 C10.4377963,11.3222286 11.1976864,10.5678931 11.1976864,9.63737316 C11.1976864,8.70685319 10.4377963,7.95251771 9.50042432,7.95251771 L9.50042432,7.95251771 Z" id="形状"></path>
                    </g>
                </g>
            </g>
        </g>
    </g>
</svg>