<?xml version="1.0" encoding="UTF-8"?>
<svg width="16px" height="11px" viewBox="0 0 16 11" version="1.1" xmlns="http://www.w3.org/2000/svg" xmlns:xlink="http://www.w3.org/1999/xlink">
    <title>路径</title>
    <g id="页面-2" stroke="none" stroke-width="1" fill="none" fill-rule="evenodd">
        <g id="后台" transform="translate(-800, -459)" fill="#1BBE47" fill-rule="nonzero">
            <g id="3" transform="translate(325, 441)">
                <g id="对号-(2)" transform="translate(475, 18)">
                    <path d="M5.01854926,10.1245825 C4.76223718,10.1166282 4.51899422,10.0095992 4.33996722,9.82600049 L0.288903747,5.79529151 C-0.0963012491,5.39575368 -0.0963012491,4.76303832 0.288903747,4.36350049 C0.477433333,4.17371208 0.73389104,4.06698359 1.00140375,4.06698359 C1.26891645,4.06698359 1.52537416,4.17371208 1.71390375,4.36350049 L5.01854926,7.68850049 L13.4599487,0.298854987 C13.646395,0.107757322 13.9020782,0 14.1690624,0 C14.4360466,0 14.6917298,0.107757322 14.8781762,0.298854987 C15.0679646,0.487384573 15.1746931,0.74384228 15.1746931,1.01135499 C15.1746931,1.27886769 15.0679646,1.5353254 14.8781762,1.72385499 L5.73104926,9.82600049 C5.54243442,10.0159157 5.28620885,10.1232902 5.01854926,10.1245825 L5.01854926,10.1245825 Z" id="路径"></path>
                </g>
            </g>
        </g>
    </g>
</svg>