<?xml version="1.0" encoding="UTF-8"?>
<svg width="21px" height="18px" viewBox="0 0 21 18" version="1.1" xmlns="http://www.w3.org/2000/svg" xmlns:xlink="http://www.w3.org/1999/xlink">
    <title>运行时间</title>
    <g id="页面-2" stroke="none" stroke-width="1" fill="none" fill-rule="evenodd">
        <g id="后台" transform="translate(-1431, -364)" fill="#207C94" fill-rule="nonzero">
            <g id="3401716195724_.pic-2" transform="translate(310.1466, 19)">
                <g id="lanse" transform="translate(1069.1586, 63)">
                    <g id="lanse备份-2" transform="translate(29, 269)">
                        <g id="运行时间" transform="translate(23, 13)">
                            <path d="M11.0000281,5 C11.5070172,5 11.9337383,5.37951245 11.993056,5.88301241 L12.0000562,6.00001405 L12.0010562,9.58106434 L13.8291076,11.41009 L13.8161072,11.4220902 C14.0977008,11.8197766 14.0516526,12.3625261 13.7070849,12.707089 C13.3625171,13.0516519 12.81976,13.0976994 12.4220681,12.8161098 L12.4150678,12.8241099 L12.3290654,12.7421088 L12.2930644,12.7071082 L12.2600635,12.6691077 L10.3460097,10.7560809 C10.1743267,10.6082372 10.0585482,10.4059807 10.0180005,10.1830728 L10.0130004,10.1590725 C10.0044688,10.1064989 10.0001217,10.0533314 10,10.0000702 L10.0020001,10.0640711 L10.0020001,10.0500709 L10.001,10.0200705 L10.001,6.00001405 L10.0070002,5.88301241 C10.0663179,5.37951245 10.493039,5 11.0000281,5 Z M11.1452185,0 C16.0355793,0 20,4.02943501 20,9 C20,13.9705547 16.0355793,18 11.1452185,18 C8.89905056,18.0034449 6.73653173,17.1341255 5.10035422,15.5699911 L4.97441956,15.4459912 L4.883904,15.3639913 C4.53341692,15.0077229 4.49842366,14.442077 4.80224324,14.043992 L4.883904,13.949992 C5.06844577,13.7622151 5.31886146,13.6567056 5.57998823,13.6567056 C5.841115,13.6567056 6.09153069,13.7622151 6.27607246,13.949992 L6.28591109,13.939992 C7.57009561,15.2591768 9.32036741,16.0010167 11.1462024,16 C14.9537585,16 18.0332548,12.8699927 18.0332547,9 C18.0332547,5.12999708 14.9537584,2 11.1462024,2 C7.41735542,2 4.38705238,5 4.26210156,8.75999501 L4.2581661,9 L6.07438021,9 C6.0911059,9 6.10783161,9.00199486 6.12357343,9.00499486 L6.14521846,9.00799486 L6.16489574,9.01199486 L6.18457305,9.01699485 L6.19047624,9.01899487 L6.20425034,9.02299485 L6.24655652,9.03799484 C6.27366386,9.04957144 6.2996794,9.06362931 6.32428181,9.07999482 L6.34986231,9.09799481 C6.36639368,9.11033457 6.38216511,9.12369296 6.39708781,9.13799479 L6.40495872,9.14599478 L6.44923263,9.19999475 L6.47087766,9.22899475 C6.47900705,9.24197636 6.48655764,9.25532318 6.49350654,9.26899471 L6.5112161,9.30899469 C6.53394704,9.36421346 6.54661516,9.42317142 6.54860295,9.48299459 L6.54860295,9.51699458 L6.5476191,9.54299456 L6.5476191,9.51699458 L6.5446675,9.56299454 L6.53679657,9.60999453 C6.53051259,9.63799902 6.52195649,9.66542616 6.5112161,9.69199447 L6.49449041,9.72999446 C6.48477817,9.74866024 6.47393479,9.76669494 6.46202288,9.78399443 L6.45218422,9.79699441 C6.44009042,9.81415074 6.42694624,9.83051642 6.41282963,9.84599439 L3.62258956,12.6819928 C3.43049007,12.8771837 3.11909675,12.8771837 2.92699726,12.6819928 L0.135773318,9.84499438 C0.121689137,9.82983877 0.108545588,9.81380786 0.0964187257,9.79699441 L0.0865800948,9.78399443 L0.057064156,9.73399444 L0.0373868481,9.69199447 C0.0145392639,9.63646336 0.0018688379,9.57715579 0,9.51699458 L0,9.48199459 L0.00393546619,9.43799462 L0.0118063755,9.38999465 C0.0180903595,9.36199015 0.0266464529,9.334563 0.0373868481,9.30799469 L0.0550964114,9.26999472 C0.0754689373,9.23009481 0.100942184,9.19310768 0.130854003,9.15999479 L0.143644228,9.14599478 L0.178079505,9.1159948 C0.204119472,9.09208439 0.2332483,9.07189812 0.264659577,9.05599483 L0.303030297,9.03799484 C0.329127612,9.02696028 0.356122236,9.01826065 0.383707204,9.01199486 L0.403384489,9.00799486 L0.425029519,9.00499486 C0.441335062,9.00249622 0.457753285,9.00082748 0.474222742,9 L2.29043685,9 C2.29043685,4.02943495 6.25485763,0 11.1452185,0 Z" id="形状"></path>
                        </g>
                    </g>
                </g>
            </g>
        </g>
    </g>
</svg>