<?xml version="1.0" encoding="UTF-8"?>
<svg width="23px" height="15px" viewBox="0 0 23 15" version="1.1" xmlns="http://www.w3.org/2000/svg" xmlns:xlink="http://www.w3.org/1999/xlink">
    <title>23E磁盘</title>
    <g id="页面-2" stroke="none" stroke-width="1" fill="none" fill-rule="evenodd">
        <g id="后台" transform="translate(-891, -287)" fill="#363A44" fill-rule="nonzero">
            <g id="3401716195724_.pic-2" transform="translate(310.1466, 19)">
                <g id="1备份-2" transform="translate(543, 241)">
                    <g id="23E磁盘" transform="translate(37.8534, 27)">
                        <path d="M23,13.1251256 C23,14.1615047 22.1426339,15 21.0832478,15 L1.91675223,15 C0.857366071,15 0,14.1615047 0,13.1251256 L0,9.37512556 C0,8.3387464 0.857366071,7.5 1.91675223,7.5 L21.0835045,7.5 C22.1426339,7.5 23,8.3387464 23,9.37512556 L23,13.1251256 Z M1.91675223,6.25393424 C1.56148437,6.25393424 1.01035714,6.36166544 0.685892857,6.49350432 L4.53762277,0.838495279 C4.85002232,0.377184759 5.56646205,0 6.12965402,0 L16.8518638,0 C17.4214732,0 18.1317522,0.37140896 18.4500558,0.838495279 L22.3017857,6.49350432 C21.9098103,6.3496116 21.4934487,6.26598808 21.0770871,6.25393424 L1.91675223,6.25393424 Z M14.0533594,11.2502511 C14.0533594,11.9390779 14.6229688,12.5023438 15.3332478,12.5023438 C16.0373661,12.5023438 16.6131362,11.9453559 16.6131362,11.2502511 C16.6131362,10.5614244 16.0376228,9.99815844 15.3332478,9.99815844 C14.6291295,10.0041854 14.0533594,10.5614244 14.0533594,11.2502511 Z M17.8868638,11.2502511 C17.8868638,11.9390779 18.4564732,12.5023438 19.1667522,12.5023438 C19.8708705,12.5023438 20.4466406,11.9453559 20.4466406,11.2502511 C20.4466406,10.5614244 19.8711272,9.99815844 19.1667522,9.99815844 C18.4623772,10.0041854 17.8868638,10.5614244 17.8868638,11.2502511 Z" id="形状"></path>
                    </g>
                </g>
            </g>
        </g>
    </g>
</svg>