<?xml version="1.0" encoding="UTF-8"?>
<svg width="17px" height="17px" viewBox="0 0 17 17" version="1.1" xmlns="http://www.w3.org/2000/svg" xmlns:xlink="http://www.w3.org/1999/xlink">
    <title>案件类型</title>
    <g id="页面-2" stroke="none" stroke-width="1" fill="none" fill-rule="evenodd">
        <g id="后台" transform="translate(-358, -456)" fill="#207C94" fill-rule="nonzero">
            <g id="3" transform="translate(325, 441)">
                <g id="案件类型" transform="translate(33, 15)">
                    <path d="M17,6.28570926 C17,7.42803036 16.0882695,8 15.285927,8 L10.7151751,8 C9.6661762,8 9,7.20535408 9,6.14729584 L9.00112554,1.71429074 C9.00112554,0.657921043 9.66619965,0 10.7151985,0 L15.2859739,0 C16.3360514,0.00110224171 17,0.657921043 17,1.71429074 L17,6.28570926 L17,6.28570926 Z M5.14284207,9 L1.71432759,9 C0.6652107,9 0,9.79464359 0,10.8509867 L0,15.2856674 C0,16.3420574 0.6652107,17 1.71432759,17 L6.28571931,17 C7.09039795,17 8,16.341518 8,15.2856674 L8,10.7142623 C8,9.65681688 7.33481275,9 6.28571931,9 L5.14286552,9 L5.14284207,9 Z M10.852123,9 C9.7951875,9 9,9.665117 9,10.7147229 L9,15.285793 C9,16.4760295 9.70757077,17 10.8504579,17 L15.2857266,17 C16.342662,17 17,16.3354224 17,15.285793 L17,10.7146994 C17.0011243,9.66399139 16.3426386,9.0005628 15.2857266,9.0005628 L10.852123,9 Z M1.71432728,0 C0.657401127,0 0,0.664628301 0,1.71429074 L0,6.28570926 C0,7.33985102 0.658479911,8 1.71432728,8 L6.28571818,8 C7.34264434,8 8,7.3353717 8,6.28570926 L8,1.71429074 C8.00112425,0.66629339 7.34264434,0 6.28571818,0 L1.71435074,0 L1.71432728,0 Z" id="形状"></path>
                </g>
            </g>
        </g>
    </g>
</svg>