<?xml version="1.0" encoding="UTF-8"?>
<svg width="25px" height="22px" viewBox="0 0 25 22" version="1.1" xmlns="http://www.w3.org/2000/svg" xmlns:xlink="http://www.w3.org/1999/xlink">
    <title>数据库</title>
    <g id="页面-2" stroke="none" stroke-width="1" fill="none" fill-rule="evenodd">
        <g id="后台" transform="translate(-890, -114)" fill="#363A44" fill-rule="nonzero">
            <g id="3401716195724_.pic-2" transform="translate(310.1466, 19)">
                <g id="2" transform="translate(543, 63)">
                    <g id="数据库" transform="translate(36.8534, 32)">
                        <path d="M18.7500285,0 L6.25002851,0 L0,11 L6.24999999,22 L18.75,22 L25,11 L18.7500285,0 Z M18.1486201,20.9415394 L6.85140837,20.9415394 L1.20281675,11 L6.85143688,1.05848953 L18.1486487,1.05848953 L23.7972403,11.000029 L18.1486201,20.9415394 Z" id="形状"></path>
                        <path d="M6.7500038,7 L5,10 L6.7500038,12.999985 L10.249981,12.999985 L11.9999848,10 L10.249981,7 L6.7500038,7 Z M10.249981,12.999985 L8.5000076,16.0000075 L10.249981,19 L13.7499886,19 L15.4999924,16.0000075 L13.7499886,12.999985 L10.249981,12.999985 Z M17.2499962,7 L13.7499886,7 L11.9999848,10 L13.7499886,12.999985 L17.2499962,12.999985 L19,10 L17.2499962,7 Z" id="形状"></path>
                    </g>
                </g>
            </g>
        </g>
    </g>
</svg>