<?xml version="1.0" encoding="UTF-8"?>
<svg width="20px" height="19px" viewBox="0 0 20 19" version="1.1" xmlns="http://www.w3.org/2000/svg" xmlns:xlink="http://www.w3.org/1999/xlink">
    <title>资产扫描</title>
    <g id="页面-2" stroke="none" stroke-width="1" fill="none" fill-rule="evenodd">
        <g id="后台" transform="translate(-1431, -308)" fill="#207C94" fill-rule="nonzero">
            <g id="3401716195724_.pic-2" transform="translate(310.1466, 19)">
                <g id="lanse" transform="translate(1069.1586, 63)">
                    <g id="lanse备份" transform="translate(29, 213)">
                        <g id="资产扫描" transform="translate(23, 13)">
                            <path d="M9.5,1.58333333 C5.127625,1.58333333 1.58333333,5.127625 1.58333333,9.5 C1.58333333,13.872375 5.127625,17.4166667 9.5,17.4166667 C13.872375,17.4166667 17.4166667,13.872375 17.4166667,9.5 C17.4166667,5.127625 13.872375,1.58333333 9.5,1.58333333 Z M0,9.5 C0,4.253625 4.253625,0 9.5,0 C14.746375,0 19,4.253625 19,9.5 C19,14.746375 14.746375,19 9.5,19 C4.253625,19 0,14.746375 0,9.5 Z" id="形状"></path>
                            <path d="M9.5,4.75 C6.87664744,4.75 4.75,6.87664744 4.75,9.5 C4.75,12.1233526 6.87664744,14.25 9.5,14.25 C12.1233526,14.25 14.25,12.1233526 14.25,9.5 C14.25,6.87664744 12.1233526,4.75 9.5,4.75 Z M3.16666667,9.5 C3.16666667,7.2373179 4.37379313,5.1465134 6.3333333,4.01517234 C8.29287347,2.88383127 10.7071265,2.88383127 12.6666667,4.01517234 C14.6262069,5.1465134 15.8333333,7.2373179 15.8333333,9.5 C15.8333333,12.9978034 12.9978034,15.8333333 9.5,15.8333333 C6.00219659,15.8333333 3.16666667,12.9978034 3.16666667,9.5 L3.16666667,9.5 Z" id="形状"></path>
                            <path d="M9.5,7.91666667 C8.62554915,7.91666667 7.91666667,8.62554915 7.91666667,9.5 C7.91666667,10.3744509 8.62554915,11.0833333 9.5,11.0833333 C10.3744508,11.0833333 11.0833333,10.3744508 11.0833333,9.5 C11.0833333,8.62554917 10.3744508,7.91666667 9.5,7.91666667 L9.5,7.91666667 Z M6.33333333,9.5 C6.33333333,8.36865895 6.93689656,7.32325671 7.91666665,6.75758618 C8.89643674,6.19191565 10.1035633,6.19191565 11.0833334,6.75758618 C12.0631034,7.32325671 12.6666667,8.36865895 12.6666667,9.5 C12.6666667,11.2489017 11.2489017,12.6666667 9.5,12.6666667 C7.75109829,12.6666667 6.33333333,11.2489017 6.33333333,9.5 L6.33333333,9.5 Z" id="形状"></path>
                            <path d="M15.0416667,13.8541667 C15.0416667,14.9472302 14.1555636,15.8333333 13.0625,15.8333333 C11.9694364,15.8333333 11.0833333,14.9472302 11.0833333,13.8541667 C11.0833333,12.7611031 11.9694364,11.875 13.0625,11.875 C14.1555636,11.875 15.0416667,12.7611031 15.0416667,13.8541667 L15.0416667,13.8541667 Z M16.195125,2.76529167 C16.5041774,3.07443739 16.5041774,3.57556261 16.195125,3.88470833 L11.7617917,8.31804167 C11.4511584,8.61806127 10.9573913,8.61377054 10.6520187,8.30839797 C10.3466461,8.00302541 10.3423554,7.5092583 10.642375,7.198625 L15.0757083,2.76529167 C15.384854,2.4562393 15.8859793,2.4562393 16.195125,2.76529167 L16.195125,2.76529167 Z" id="形状"></path>
                        </g>
                    </g>
                </g>
            </g>
        </g>
    </g>
</svg>