<?xml version="1.0" encoding="UTF-8"?>
<svg width="20px" height="19px" viewBox="0 0 20 19" version="1.1" xmlns="http://www.w3.org/2000/svg" xmlns:xlink="http://www.w3.org/1999/xlink">
    <title>服务器</title>
    <g id="页面-2" stroke="none" stroke-width="1" fill="none" fill-rule="evenodd">
        <g id="后台" transform="translate(-365, -285)" fill="#363A44" fill-rule="nonzero">
            <g id="3401716195724_.pic-2" transform="translate(310.1466, 19)">
                <g id="1备份" transform="translate(15, 241)">
                    <g id="服务器" transform="translate(39.8534, 25)">
                        <path d="M17.69534,0 L1.60960398,0 C0.721921339,0.00215539222 0.0026967362,0.720941517 0,1.60862268 L0,3.75353468 C0.00269411227,4.64083411 0.721323231,5.35946323 1.60862266,5.36215734 L17.69534,5.36215734 C18.5826395,5.35946324 19.3012686,4.64083412 19.3039627,3.75353468 L19.3039627,1.60862268 C19.3012686,0.721323235 18.5826395,0.00269410214 17.69534,0 L17.69534,0 Z M3.14732655,4.04498561 C2.3941293,4.04498561 1.78354228,3.4343986 1.78354228,2.68120135 C1.78354228,1.9280041 2.3941293,1.31741708 3.14732655,1.31741708 C3.9005238,1.31741708 4.51111081,1.9280041 4.51111081,2.68120135 C4.51111081,3.43401553 3.90112186,4.04444392 3.14830787,4.04498561 L3.14732655,4.04498561 Z M17.69534,6.81916665 L1.60960398,6.81916665 C0.721961037,6.82118729 0.00269734185,7.53990285 0,8.427544 L0,10.572456 C0.00269410209,11.4597554 0.721323224,12.1783846 1.60862266,12.1810787 L17.69534,12.1810787 C18.5826395,12.1783846 19.3012686,11.4597554 19.3039627,10.572456 L19.3039627,8.427544 C19.3012679,7.54028464 18.5825998,6.82172611 17.69534,6.81916665 Z M3.14732655,10.8639069 C2.3941293,10.8639069 1.78354228,10.2533199 1.78354228,9.50012267 C1.78354228,8.74692541 2.3941293,8.1363384 3.14732655,8.1363384 C3.9005238,8.1363384 4.51111081,8.74692541 4.51111081,9.50012267 C4.51111081,10.2529369 3.90112186,10.8633652 3.14830787,10.8639069 L3.14732655,10.8639069 Z M17.69534,13.638088 L1.60960398,13.638088 C0.721865624,13.6401092 0.00256264347,14.3589737 0,15.2467106 L0,17.3913773 C0.00269410209,18.2786768 0.721323224,18.9973059 1.60862266,19 L17.69534,19 C18.5826395,18.9973059 19.3012686,18.2786768 19.3039627,17.3913773 L19.3039627,15.2467106 C19.3014026,14.3593555 18.5826952,13.6406481 17.69534,13.638088 L17.69534,13.638088 Z M3.14732655,17.6828283 C2.39428922,17.6822864 1.78420772,17.0715095 1.78452362,16.318472 C1.78483977,15.5654346 2.39543368,14.9551699 3.1484712,14.9552601 C3.90150872,14.9553503 4.51195646,15.5657611 4.51209215,16.3187987 C4.51215721,16.6805392 4.36850194,17.0274861 4.11273572,17.2832984 C3.85696951,17.5391106 3.51004846,17.6828283 3.14830787,17.6828283 L3.14732655,17.6828283 Z" id="形状"></path>
                    </g>
                </g>
            </g>
        </g>
    </g>
</svg>