<?xml version="1.0" encoding="UTF-8"?>
<svg width="17px" height="17px" viewBox="0 0 17 17" version="1.1" xmlns="http://www.w3.org/2000/svg" xmlns:xlink="http://www.w3.org/1999/xlink">
    <title>系统管理d</title>
    <g id="页面-2" stroke="none" stroke-width="1" fill="none" fill-rule="evenodd">
        <g id="后台" transform="translate(-875, -456)" fill="#207C94" fill-rule="nonzero">
            <g id="3" transform="translate(325, 441)">
                <g id="编组-2备份" transform="translate(525, 0)">
                    <g id="系统管理d" transform="translate(25, 15)">
                        <path d="M5.54166667,11.9277778 C5.38333335,11.4527778 5.33055556,11.0305556 5.27777777,10.5555556 L0,10.5555556 L0,14.7777778 L7.91666667,14.7777778 C6.80833335,14.1972222 5.9638889,13.1944445 5.54166667,11.9277778 Z M3.16666667,13.1944444 C2.85,13.1944444 2.63888888,12.9833333 2.63888888,12.6666667 C2.63888888,12.35 2.85,12.1388889 3.16666667,12.1388889 C3.48333335,12.1388889 3.69444444,12.35 3.69444444,12.6666667 C3.69444444,12.9833333 3.48333333,13.1944444 3.16666667,13.1944444 Z M5.64722221,8.39166667 C5.64722221,8.3388889 5.64722221,8.28611112 5.7,8.18055556 L5.7,7.96944444 L6.01666667,7.65277779 C6.28055556,7.3888889 6.65,7.23055556 7.01944444,7.23055556 L7.17777777,7.23055556 C7.125,6.80833333 7.28333333,6.38611112 7.6,6.06944444 C7.70555556,5.96388888 7.86388888,5.80555556 8.12777777,5.75277779 L8.28611112,5.7 C8.91944444,5.43611112 9.60555556,5.27777779 10.2916667,5.27777779 C11.875,5.27777779 13.3,6.01666667 14.25,7.23055556 L14.25,5.27777779 L0,5.27777779 L0,9.5 L5.38333333,9.5 C5.4361111,9.13055556 5.54166665,8.76111112 5.64722221,8.39166667 L5.64722221,8.39166667 Z M3.16666667,7.91666667 C2.85,7.91666667 2.63888888,7.70555556 2.63888888,7.3888889 C2.63888888,7.07222225 2.85,6.86111112 3.16666667,6.86111112 C3.48333335,6.86111112 3.69444444,7.07222223 3.69444444,7.3888889 C3.69444444,7.70555558 3.48333333,7.91666667 3.16666667,7.91666667 Z M14.25,0 L0,0 L0,4.22222223 L14.25,4.22222223 L14.25,0 Z M3.16666667,2.6388889 C2.85,2.6388889 2.63888888,2.42777779 2.63888888,2.11111112 C2.63888888,1.79444444 2.85,1.58333335 3.16666667,1.58333335 C3.48333335,1.58333335 3.69444444,1.79444446 3.69444444,2.11111112 C3.69444444,2.42777777 3.48333333,2.6388889 3.16666667,2.6388889 Z M16.2555556,13.8277778 L14.0388889,11.6111111 C14.1972222,11.1888889 14.25,10.7666667 14.25,10.3444444 C14.25,9.81666667 14.1444444,9.28888888 13.9333333,8.76111112 C13.3,7.28333335 11.8222222,6.38611112 10.2916667,6.38611112 C9.7638889,6.38611112 9.23611112,6.49166667 8.70833333,6.70277779 L8.44444444,6.80833335 C8.39166667,6.80833335 8.33888888,6.86111112 8.33888888,6.86111112 C8.18055556,7.01944444 8.18055556,7.17777779 8.28611112,7.33611112 L8.33888888,7.3888889 L10.3972222,9.44722223 L9.34166667,10.5027778 L7.33611112,8.49722223 C7.33611112,8.44444446 7.28333335,8.44444446 7.28333333,8.44444444 C7.17777777,8.39166667 7.125,8.33888888 7.01944444,8.3388889 C6.91388888,8.33888892 6.80833333,8.39166667 6.75555556,8.44444444 C6.75555556,8.49722221 6.70277779,8.49722221 6.70277777,8.55 L6.70277777,8.60277779 L6.65,8.76111112 C6.28055556,9.65833335 6.22777777,10.6611111 6.54444444,11.6111111 C7.07222221,13.2472222 8.65555556,14.3555556 10.3444444,14.3555556 C10.7666667,14.3555556 11.1888889,14.3027778 11.6111111,14.1444444 L13.8277778,16.3611111 C14.1444444,16.6777778 14.6194444,16.8888889 15.0944444,16.8888889 C15.5694444,16.8888889 15.9916667,16.6777778 16.2555556,16.3611111 C16.9416667,15.675 16.9416667,14.5138889 16.2555556,13.8277778 L16.2555556,13.8277778 Z M15.5166667,15.6222222 L15.4638889,15.675 C15.4111111,15.7277778 15.3055556,15.8333333 15.0944444,15.8333333 C14.9361111,15.8333333 14.725,15.7277778 14.5666667,15.6222222 L12.35,13.4055556 L11.875,12.9305556 L11.2416667,13.1416667 C10.925,13.2472222 10.6611111,13.3 10.3444444,13.3 C9.07777777,13.3 7.91666667,12.4555556 7.54722221,11.2944444 C7.38888888,10.8722222 7.38888888,10.45 7.38888888,10.0805556 L8.60277777,11.2944444 L9.34166667,12.0333333 L10.0805556,11.2944444 L11.1361111,10.2388889 L11.875,9.5 L11.1361111,8.76111112 L9.86944444,7.49444444 C10.0277778,7.49444444 10.1333333,7.44166667 10.2916667,7.44166667 C11.4527778,7.44166667 12.5083333,8.12777779 12.9305556,9.18333335 C13.0888889,9.60555558 13.1944444,9.97500002 13.1944444,10.3972222 C13.1944444,10.7666667 13.1416667,11.0305556 13.0361111,11.2944444 L12.7722222,11.9277778 L13.2472222,12.4027778 L15.4638889,14.6194444 C15.7805556,14.8305556 15.7805556,15.3583333 15.5166667,15.6222222 L15.5166667,15.6222222 Z" id="形状"></path>
                    </g>
                </g>
            </g>
        </g>
    </g>
</svg>