<?xml version="1.0" encoding="UTF-8"?>
<svg width="17px" height="17px" viewBox="0 0 17 17" version="1.1" xmlns="http://www.w3.org/2000/svg" xmlns:xlink="http://www.w3.org/1999/xlink">
    <title>工具</title>
    <g id="页面-2" stroke="none" stroke-width="1" fill="none" fill-rule="evenodd">
        <g id="后台" transform="translate(-1432, -253)" fill="#207C94" fill-rule="nonzero">
            <g id="3401716195724_.pic-2" transform="translate(310.1466, 19)">
                <g id="lanse" transform="translate(1069.1586, 63)">
                    <g transform="translate(29, 157)" id="工具">
                        <g transform="translate(24, 14)">
                            <path d="M13.775373,5.80369168 C14.1806073,5.79998074 14.5515155,5.58029324 14.7288983,5.21959011 L16.1672577,2.29778347 C16.3605976,1.90479519 16.287121,1.42831082 15.9839374,1.11195339 L15.2285761,0.323564722 C14.8890253,-0.0306442619 14.3570624,-0.102079809 13.9367987,0.14915066 L11.030578,1.88382839 C10.7162616,2.07160183 10.5208808,2.41579128 10.5208808,2.78206082 L10.5208808,4.08330105 L8.65947452,5.86714871 C8.1024628,5.25836941 7.62022647,4.730303 7.36435733,4.44790066 C7.56511905,2.759053 7.24338077,1.52498074 6.407121,0.777969019 C5.22537295,-0.277050512 3.45822452,0.0354104256 2.75314639,0.219101832 C2.50729226,0.283073249 2.31540639,0.475243179 2.25179873,0.721191676 C2.18797061,0.967969019 2.26330264,1.23051785 2.44810733,1.40604519 L3.60684756,2.50837918 C3.58495303,2.81044949 3.45562686,3.09062527 3.23779483,3.3056741 C3.04037295,3.50049832 2.79044131,3.62147488 2.52047061,3.6556155 L1.253371,2.43082058 C1.06225772,2.24638699 0.788204985,2.18571316 0.536603422,2.27236355 C0.286300688,2.35882839 0.108361235,2.57554714 0.0718085005,2.83735378 C-0.0449004839,3.67454128 -0.180349703,5.7459866 1.08359561,6.89582058 C1.84081241,7.58494168 2.92514834,7.79368191 4.30969913,7.51795925 C4.34792178,7.55803738 4.39022647,7.60275418 4.43568545,7.65043972 C4.67949405,7.90667996 4.99102725,8.23398464 5.24003116,8.48354519 L0.768722563,12.9541116 C0.349386625,13.3734475 0.0879510786,13.9074514 0.032472563,14.4577835 C-0.0267168902,15.0442971 0.160871,15.6020511 0.547179594,15.9881741 C0.886359282,16.3275393 1.35839053,16.5134573 1.86567569,16.5134573 C1.93581241,16.5134573 2.00650577,16.5099319 2.07757022,16.5028811 C2.62790225,16.4474026 3.16190616,16.1857815 3.58105655,15.7666311 L8.25720889,11.0906643 C8.4349628,11.2821487 8.65873233,11.5341214 8.86710147,11.8011233 C8.64704288,13.5703128 8.97100772,14.8513284 9.83083194,15.6104007 C10.4687421,16.1735354 11.2719745,16.3358889 11.9855878,16.3358889 C12.5936249,16.3358889 13.1363495,16.2182522 13.4571601,16.1301175 C13.7020819,16.0627639 13.8913398,15.8675686 13.9514569,15.6207913 C14.0115741,15.3732718 13.9327167,15.1120218 13.745871,14.9396487 L12.6246112,13.9011428 C12.6291704,13.6026303 12.7510075,13.3178995 12.9637909,13.1084866 C13.157378,12.9180196 13.4127643,12.8031616 13.6837128,12.7847073 C14.0021112,13.1068167 14.5342597,13.6389651 14.8198163,13.8905667 C15.0044355,14.0532913 15.2649433,14.1076565 15.4987323,14.0308401 C15.7341913,13.9543948 15.9139862,13.7571585 15.9677948,13.5165042 C16.3748847,11.7064944 16.1557538,10.4002444 15.3168964,9.63393582 C14.2284784,8.63940457 12.5019648,8.93164089 11.6705292,9.15336941 L10.3607538,7.72502957 L12.3861835,5.7843948 L13.775373,5.80369168 L13.775373,5.80369168 Z M5.29254092,6.83440457 C5.13148623,6.66518582 5.00549991,6.53326199 4.95799991,6.48668972 C4.7861835,6.31839871 4.54311709,6.25178738 4.30691592,6.30708035 C3.19549014,6.570928 2.37889834,6.47425808 1.87977725,6.02022488 C1.39883975,5.5825198 1.2086542,4.80025418 1.18638858,4.0122366 L1.84693545,4.65088894 C1.97519239,4.77586036 2.14658445,4.84674226 2.32564639,4.84886746 C2.97357608,4.85758816 3.60091006,4.60914089 4.06867373,4.14824246 C4.53625186,3.68715847 4.79379092,3.07169949 4.79379092,2.41486355 L4.79379092,2.30446316 C4.79379092,2.11279324 4.71400577,1.92706082 4.57577334,1.79625027 L3.96940616,1.21957058 C4.51639834,1.18691433 5.17045108,1.26020535 5.61910342,1.6609866 C6.17852725,2.16066433 6.36147647,3.1184573 6.16331241,4.50671902 C6.13362491,4.71156277 6.19485538,4.91677761 6.33178897,5.07022488 C6.49859561,5.25707058 7.0927167,5.90796902 7.80484561,6.68633816 L7.57291202,6.90862332 L7.1936542,6.5293655 L6.07647647,7.64654324 C5.83563663,7.40514675 5.52002139,7.07338894 5.29254092,6.83440457 L5.29254092,6.83440457 Z M2.74442569,14.9300003 C2.31544131,15.358428 1.69293155,15.4595511 1.383996,15.1515432 C1.20086123,14.9682229 1.19640811,14.7125393 1.21013858,14.5765335 C1.23778506,14.3009964 1.38195498,14.0148831 1.60553897,13.7911136 L7.19346866,8.20299832 L8.33235538,9.34188503 L2.74442569,14.9300003 Z M11.0025605,10.1761038 C11.1875507,10.3770511 11.4744062,10.4527542 11.7315741,10.3685159 C11.9306659,10.3046878 13.7031952,9.76289089 14.5188593,10.5078616 C14.9626874,10.9132815 15.0313398,11.6543557 14.9582343,12.3861526 C14.7670623,12.1965178 14.5771817,12.0055856 14.3886054,11.8133694 C14.2707831,11.693135 14.1128827,11.6194729 13.943664,11.605928 C13.2723554,11.5513772 12.613664,11.7931448 12.1342108,12.264805 C11.6548402,12.7361549 11.403617,13.392341 11.4456464,14.0633108 L11.4521405,14.1681448 C11.4643866,14.3488675 11.5445429,14.5154886 11.675539,14.6355374 L12.2247577,15.1443069 C11.6883417,15.1786331 11.0545136,15.1122073 10.6142108,14.7234866 C9.89966983,14.0926272 9.92137881,12.7698636 10.0655487,11.7703225 C10.0915253,11.5881155 10.0438398,11.3983011 9.93362491,11.2485647 C9.65159366,10.8674514 9.3315253,10.507305 9.09458194,10.2536624 L10.0061737,9.34207058 L9.35397647,8.68987332 L9.50612491,8.54403347 L11.0025605,10.1761038 L11.0025605,10.1761038 Z M11.608371,4.8909866 L8.51716006,7.85268582 L8.41009952,7.74562527 L11.3808905,4.89859402 C11.586662,4.70209988 11.7044843,4.42619168 11.7044843,4.14193386 L11.7044843,2.85980496 L14.4496503,1.2212405 L15.0630683,1.86137722 L13.7056073,4.61897488 L12.3461054,4.6000491 C12.0638886,4.5941116 11.8070917,4.69987332 11.608371,4.8909866 L11.608371,4.8909866 Z" id="形状"></path>
                        </g>
                    </g>
                </g>
            </g>
        </g>
    </g>
</svg>