<svg width="1600" height="1100" viewBox="0 0 1600 1100" fill="none" xmlns="http://www.w3.org/2000/svg">
  <rect width="1600" height="1100" fill="#07111F"/>
  <g opacity="0.9">
    <circle cx="263" cy="208" r="320" fill="url(#paint0_radial)"/>
    <circle cx="1364" cy="858" r="332" fill="url(#paint1_radial)"/>
    <circle cx="960" cy="434" r="428" fill="url(#paint2_radial)"/>
  </g>
  <g opacity="0.24" stroke="#7DD3FC" stroke-width="3">
    <path d="M-54 906C181 656 404 568 615 642C826 716 1026 904 1218 850C1358 811 1493 689 1622 486"/>
    <path d="M-68 848C167 598 390 510 601 584C812 658 1012 846 1204 792C1344 753 1479 631 1608 428"/>
    <path d="M-82 790C153 540 376 452 587 526C798 600 998 788 1190 734C1330 695 1465 573 1594 370"/>
    <path d="M-96 732C139 482 362 394 573 468C784 542 984 730 1176 676C1316 637 1451 515 1580 312"/>
    <path d="M-110 674C125 424 348 336 559 410C770 484 970 672 1162 618C1302 579 1437 457 1566 254"/>
  </g>
  <g opacity="0.12" stroke="#E2E8F0" stroke-width="1.5">
    <path d="M182 0V1100"/>
    <path d="M366 0V1100"/>
    <path d="M550 0V1100"/>
    <path d="M734 0V1100"/>
    <path d="M918 0V1100"/>
    <path d="M1102 0V1100"/>
    <path d="M1286 0V1100"/>
    <path d="M1470 0V1100"/>
  </g>
  <defs>
    <radialGradient id="paint0_radial" cx="0" cy="0" r="1" gradientUnits="userSpaceOnUse" gradientTransform="translate(263 208) rotate(90) scale(320)">
      <stop stop-color="#0EA5E9"/>
      <stop offset="1" stop-color="#0EA5E9" stop-opacity="0"/>
    </radialGradient>
    <radialGradient id="paint1_radial" cx="0" cy="0" r="1" gradientUnits="userSpaceOnUse" gradientTransform="translate(1364 858) rotate(90) scale(332)">
      <stop stop-color="#38BDF8"/>
      <stop offset="1" stop-color="#38BDF8" stop-opacity="0"/>
    </radialGradient>
    <radialGradient id="paint2_radial" cx="0" cy="0" r="1" gradientUnits="userSpaceOnUse" gradientTransform="translate(960 434) rotate(90) scale(428)">
      <stop stop-color="#1D4ED8"/>
      <stop offset="1" stop-color="#1D4ED8" stop-opacity="0"/>
    </radialGradient>
  </defs>
</svg>
